<svg width="512" height="512" viewBox="0 0 512 512" fill="none" xmlns="http://www.w3.org/2000/svg">
<path d="M448 234.133V170.667C448 159.351 443.505 148.498 435.503 140.497C427.502 132.495 416.649 128 405.333 128H277.333V100.011C280.58 97.1304 283.202 93.6148 285.036 89.6813C286.871 85.7478 287.879 81.4798 287.999 77.1412C288.119 72.8026 287.348 68.4854 285.734 64.4565C284.119 60.4277 281.696 56.7726 278.613 53.7173C274.138 49.2477 268.439 46.2045 262.235 44.9721C256.031 43.7397 249.602 44.3734 243.758 46.7931C237.914 49.2128 232.918 53.3099 229.402 58.5671C225.885 63.8243 224.006 70.0058 224 76.3307C224 85.76 228.16 94.1653 234.667 100.011V128H106.667C95.3507 128 84.4983 132.495 76.4967 140.497C68.4952 148.498 64 159.351 64 170.667V234.624L62.464 234.731C57.0856 235.114 52.0523 237.522 48.3786 241.468C44.7049 245.415 42.6638 250.608 42.6666 256V298.667C42.6666 304.325 44.9142 309.751 48.915 313.752C52.9158 317.752 58.342 320 64 320V426.667C64 437.983 68.4952 448.835 76.4967 456.837C84.4983 464.838 95.3507 469.333 106.667 469.333H405.333C416.649 469.333 427.502 464.838 435.503 456.837C443.505 448.835 448 437.983 448 426.667V320C453.658 320 459.084 317.752 463.085 313.752C467.086 309.751 469.333 304.325 469.333 298.667V257.323C469.581 254.012 469.055 250.689 467.797 247.616C463.488 237.205 454.251 234.709 448 234.133ZM149.333 256C149.333 232.448 163.669 213.333 181.333 213.333C198.997 213.333 213.333 232.448 213.333 256C213.333 279.552 198.997 298.667 181.333 298.667C163.669 298.667 149.333 279.552 149.333 256ZM341.291 384C319.936 383.936 170.667 384 170.667 384V341.333C170.667 341.333 320.021 341.291 341.376 341.333L341.291 384ZM330.667 298.667C313.003 298.667 298.667 279.552 298.667 256C298.667 232.448 313.003 213.333 330.667 213.333C348.331 213.333 362.667 232.448 362.667 256C362.667 279.552 348.331 298.667 330.667 298.667Z" fill="black"/>
</svg>
